# xmcd
#
# Track frame offsets:
#	150
#	42309
#	66837
#	114276
#	164732
#	211654
#	257103
#
# Disc length: 3656 seconds
#
# Revision: 1
# Processed by: cddbd v1.5.2PL0 Copyright (c) Steve Scherf et al.
# Submitted via: audiograbber 1.83.01
#
DISCID=5f0e4607
DTITLE=Grateful Dead - 79-06-28 Sacramento Memorial Auditorium, Sacramento CA
DYEAR=1900
DGENRE=
TTITLE0=Ship Of Fools
TTITLE1=Playing In The Band
TTITLE2=Eyes Of The World
TTITLE3=Drums
TTITLE4=Not Fade Away
TTITLE5=Black Peter
TTITLE6=Around and Around
EXTD=
EXTT0=
EXTT1=
EXTT2=
EXTT3=
EXTT4=
EXTT5=
EXTT6=
PLAYORDER=
